<?xml version="1.0" standalone="no"?>
<!DOCTYPE svg PUBLIC "-//W3C//DTD SVG 20010904//EN"
 "http://www.w3.org/TR/2001/REC-SVG-20010904/DTD/svg10.dtd">
<svg version="1.0" xmlns="http://www.w3.org/2000/svg"
 width="834.000000pt" height="834.000000pt" viewBox="0 0 834.000000 834.000000"
 preserveAspectRatio="xMidYMid meet">
<metadata>
Created by potrace 1.14, written by Peter Selinger 2001-2017
</metadata>
<g transform="translate(0.000000,834.000000) scale(0.100000,-0.100000)"
fill="#000000" stroke="none">
<path d="M3987 8319 c-43 -10 -88 -24 -100 -31 -12 -7 -24 -13 -27 -13 -12 -2
-79 -40 -119 -69 -45 -31 -151 -135 -151 -148 0 -4 -6 -13 -13 -20 -34 -34
-100 -183 -113 -253 -2 -11 -6 -33 -9 -50 -7 -38 -7 -161 0 -197 14 -75 17
-89 29 -128 8 -26 57 -131 66 -140 3 -3 12 -18 20 -33 21 -42 121 -140 187
-185 80 -53 173 -94 248 -109 58 -12 258 -11 299 1 23 7 45 13 49 13 26 3 131
53 187 89 104 67 188 160 242 269 90 180 101 379 31 567 -61 165 -213 329
-363 392 -77 32 -84 35 -110 42 -88 25 -257 27 -353 3z"/>
<path d="M2569 7515 c-3 -2 -21 -6 -42 -9 -42 -5 -73 -13 -102 -26 -27 -13
-79 -33 -86 -34 -3 -1 -34 -20 -70 -43 -62 -40 -162 -133 -183 -170 -5 -10
-16 -25 -25 -33 -8 -8 -32 -51 -52 -95 -184 -393 9 -847 421 -992 96 -34 238
-47 330 -31 77 14 84 16 113 27 15 6 27 8 27 6 0 -6 163 78 182 94 139 116
213 216 259 349 31 89 33 109 33 247 0 105 -4 143 -21 197 -51 157 -132 273
-259 369 -85 64 -176 109 -254 124 -8 2 -15 4 -15 5 0 9 -248 24 -256 15z"/>
<path d="M5474 7495 c-203 -52 -366 -177 -461 -355 -30 -55 -64 -147 -70 -185
-1 -11 -6 -43 -11 -70 -33 -211 58 -462 223 -617 36 -34 161 -119 178 -122 6
-1 17 -5 24 -9 15 -9 92 -37 118 -43 131 -27 226 -24 379 10 30 7 155 65 190
88 51 34 176 152 176 166 0 5 9 18 19 29 38 41 94 167 118 267 12 53 12 220
-1 277 -8 32 -15 62 -15 64 -1 3 -1 6 -2 8 0 1 -2 9 -4 17 -7 37 -77 166 -120
223 -26 34 -78 86 -114 114 -66 53 -184 118 -231 127 -14 3 -41 10 -60 16 -19
7 -82 13 -140 15 -85 3 -122 -1 -196 -20z"/>
<path d="M1187 6634 c-1 -1 -34 -4 -72 -7 -305 -19 -577 -264 -642 -577 -3
-14 -7 -71 -9 -127 -3 -78 1 -119 17 -180 22 -84 77 -213 90 -213 5 0 9 -6 9
-13 0 -14 80 -110 118 -142 13 -11 36 -30 51 -43 31 -26 149 -90 194 -104 99
-30 148 -37 257 -34 63 2 126 7 140 10 14 4 30 8 35 10 36 9 95 33 144 58 314
165 461 536 346 873 -89 260 -326 450 -603 483 -40 5 -73 7 -75 6z"/>
<path d="M4128 6634 c-2 -1 -19 -3 -38 -5 -19 -2 -39 -5 -45 -8 -5 -2 -22 -6
-38 -8 -81 -9 -242 -94 -322 -170 -182 -173 -260 -389 -230 -636 22 -176 148
-383 296 -484 49 -34 189 -106 189 -98 0 3 8 1 18 -4 57 -30 302 -36 402 -8
144 39 280 130 383 256 21 26 108 181 101 181 -2 0 2 14 11 30 9 17 14 30 11
30 -2 0 2 24 10 53 19 66 18 208 -1 298 -16 80 -55 172 -102 245 -32 50 -135
164 -147 164 -4 0 -19 11 -33 24 -44 41 -184 104 -268 121 -54 11 -192 24
-197 19z"/>
<path d="M6999 6615 c-177 -40 -347 -159 -448 -314 -19 -31 -36 -58 -37 -61 0
-3 -10 -27 -22 -53 -12 -27 -24 -58 -27 -70 -37 -168 -38 -246 -6 -389 42
-184 205 -383 381 -466 86 -40 109 -48 165 -56 17 -3 30 -5 30 -6 0 -5 60 -9
130 -10 199 -1 407 96 540 252 44 51 136 202 132 217 0 3 7 33 18 66 14 45 18
90 18 180 0 66 -3 131 -6 145 -16 69 -26 101 -41 130 -9 18 -16 37 -16 42 0
16 -71 120 -114 168 -102 113 -255 203 -391 228 -66 12 -246 10 -306 -3z"/>
<path d="M2493 5759 c-271 -67 -484 -285 -538 -549 -2 -8 -4 -15 -5 -15 -5 0
-10 -69 -10 -140 -1 -198 70 -367 215 -510 71 -70 100 -92 181 -133 147 -74
333 -96 492 -57 12 3 32 7 43 10 78 17 244 120 309 191 47 52 100 120 100 129
0 4 9 20 21 36 11 16 18 29 14 29 -3 0 3 17 14 38 10 20 24 62 30 92 6 30 14
66 16 80 16 74 4 213 -26 310 -74 238 -277 430 -514 487 -92 22 -256 23 -342
2z"/>
<path d="M5558 5775 c-1 -2 -21 -6 -42 -9 -21 -4 -51 -9 -65 -13 -32 -8 -173
-71 -181 -81 -3 -4 -18 -13 -33 -21 -30 -16 -140 -122 -171 -165 -109 -151
-161 -367 -132 -546 12 -73 52 -182 92 -251 34 -57 178 -219 196 -219 3 0 30
-16 59 -35 30 -19 57 -35 61 -35 4 0 19 -5 35 -12 15 -6 30 -12 33 -12 3 -1
10 -4 15 -7 6 -4 26 -9 45 -13 19 -3 46 -9 60 -12 90 -21 326 3 367 38 7 6 13
7 13 3 0 -12 131 64 190 111 31 24 70 61 86 81 16 20 34 41 39 47 45 49 107
182 128 279 14 64 17 243 4 292 -21 84 -33 117 -60 174 -16 36 -33 68 -36 71
-3 3 -19 24 -35 48 -70 103 -254 235 -357 256 -13 3 -40 10 -59 16 -32 10
-244 23 -252 15z"/>
<path d="M1137 4924 c-1 -1 -24 -4 -52 -7 -68 -8 -88 -13 -152 -37 -225 -84
-388 -267 -454 -510 -14 -50 -18 -242 -7 -308 11 -62 64 -189 105 -252 132
-200 341 -318 578 -325 85 -3 123 0 210 18 6 2 16 6 23 10 6 5 12 6 12 2 0 -3
13 1 30 10 16 8 32 15 35 15 3 0 27 11 53 24 61 31 135 87 186 140 34 36 119
153 121 166 1 3 9 23 19 45 67 152 76 362 22 520 -4 11 -26 58 -49 105 -33 67
-59 102 -123 165 -44 44 -87 85 -95 90 -28 21 -179 96 -179 89 0 -3 -7 -1 -15
6 -8 7 -15 10 -15 6 0 -3 -12 -1 -26 5 -39 14 -215 33 -227 23z"/>
<path d="M7015 4908 c-253 -49 -465 -239 -546 -490 -21 -66 -33 -142 -32 -218
0 -67 13 -161 25 -185 6 -11 11 -22 10 -25 -5 -14 57 -160 67 -160 4 0 12 -12
18 -27 27 -59 208 -223 263 -238 3 -1 30 -13 61 -28 31 -14 69 -28 85 -31 16
-3 49 -10 74 -15 162 -34 387 18 534 123 199 142 310 365 302 605 -4 112 -9
140 -31 201 -9 25 -17 50 -19 55 -16 53 -90 167 -147 226 -173 181 -415 256
-664 207z"/>
<path d="M3987 4869 c-74 -21 -217 -86 -217 -100 0 -4 -9 -10 -19 -14 -52 -16
-252 -259 -235 -286 3 -5 1 -9 -4 -9 -8 0 -24 -44 -38 -99 -2 -9 -8 -34 -13
-56 -23 -88 -11 -269 23 -360 5 -11 15 -38 23 -59 43 -116 170 -260 293 -334
74 -44 214 -97 230 -87 6 3 10 2 10 -4 0 -6 50 -9 138 -7 173 3 263 30 393
117 74 50 189 164 189 188 0 5 4 11 9 13 14 5 78 140 94 198 26 94 37 238 23
305 -27 131 -59 211 -119 299 -82 121 -197 213 -338 269 -90 36 -108 39 -249
42 -98 2 -140 -1 -193 -16z"/>
<path d="M2503 4020 c-94 -21 -172 -55 -252 -109 -57 -39 -136 -115 -168 -161
-9 -14 -20 -27 -24 -30 -13 -9 -77 -146 -90 -190 -7 -25 -13 -47 -14 -50 -5
-15 -18 -159 -17 -180 4 -73 14 -144 22 -160 6 -10 10 -27 10 -36 0 -32 77
-177 127 -238 41 -51 80 -87 173 -159 8 -7 47 -26 85 -44 169 -76 295 -86 514
-39 14 3 58 21 99 41 188 89 328 253 386 453 8 28 12 52 9 52 -3 0 -1 6 4 13
13 16 15 244 3 252 -6 4 -8 11 -4 16 6 11 -30 128 -54 174 -9 16 -16 32 -17
35 -2 19 -110 157 -150 193 -29 26 -133 97 -141 97 -4 0 -15 6 -23 13 -15 12
-125 50 -181 63 -66 14 -218 11 -297 -6z"/>
<path d="M5535 4023 c-63 -14 -177 -53 -185 -63 -3 -3 -26 -18 -52 -33 -26
-15 -60 -39 -75 -53 -16 -15 -35 -31 -43 -38 -22 -16 -100 -111 -100 -121 0
-5 -8 -18 -18 -29 -36 -40 -97 -220 -101 -298 -12 -222 48 -403 185 -557 84
-93 255 -196 360 -215 16 -3 40 -8 54 -12 61 -14 196 -10 289 10 197 43 388
198 481 391 38 79 76 217 65 236 -4 5 -3 9 2 9 15 0 4 158 -18 245 -41 165
-149 319 -292 417 -82 56 -154 87 -272 115 -47 11 -224 9 -280 -4z"/>
<path d="M1075 3175 c-309 -49 -551 -284 -604 -585 -7 -45 -7 -215 0 -260 34
-191 170 -384 343 -489 191 -115 460 -130 663 -36 182 84 317 227 378 400 9
28 20 57 23 65 29 82 33 246 8 355 -28 120 -97 244 -185 333 -42 43 -90 87
-107 99 -40 28 -140 77 -185 92 -106 34 -224 44 -334 26z"/>
<path d="M4020 3166 c-153 -35 -256 -90 -360 -195 -137 -137 -211 -314 -211
-504 0 -83 2 -93 22 -182 11 -47 73 -187 101 -229 86 -125 272 -262 385 -282
14 -3 30 -7 35 -10 30 -19 216 -27 293 -13 208 38 369 141 486 312 22 31 37
57 34 57 -4 0 3 13 14 29 12 16 21 36 21 43 0 8 3 18 7 22 4 3 8 13 10 21 6
28 11 50 13 50 2 0 6 18 15 70 10 61 6 191 -9 264 -17 78 -80 218 -125 274
-186 234 -456 334 -731 273z"/>
<path d="M7117 3184 c-1 -1 -27 -4 -57 -7 -63 -5 -211 -53 -222 -70 -4 -7 -8
-9 -8 -5 0 14 -100 -53 -157 -105 -55 -51 -133 -148 -133 -166 0 -5 -4 -11 -8
-13 -10 -4 -73 -152 -77 -182 -2 -12 -7 -41 -11 -66 -23 -144 6 -315 72 -438
58 -105 109 -166 206 -245 36 -29 121 -80 138 -82 3 0 10 -3 15 -7 43 -26 160
-51 258 -53 95 -2 130 1 215 20 133 30 289 138 394 272 44 57 102 186 125 278
12 51 10 234 -4 300 -12 60 -57 165 -108 255 -27 49 -190 204 -215 205 -3 0
-25 12 -50 27 -54 32 -158 67 -220 74 -49 6 -149 12 -153 8z"/>
<path d="M2548 2324 c-2 -1 -16 -5 -31 -8 -15 -3 -38 -8 -52 -11 -13 -3 -37
-10 -52 -17 -16 -6 -30 -12 -33 -13 -43 -11 -172 -98 -228 -153 -129 -127
-216 -331 -216 -507 1 -309 204 -595 489 -686 39 -12 77 -24 85 -27 39 -13
210 -18 258 -8 68 15 78 17 89 20 7 1 16 5 19 9 4 4 16 7 26 7 22 0 138 60
188 98 52 39 139 131 168 176 26 41 74 133 79 151 39 135 41 154 38 275 -3
134 -18 197 -70 300 -128 254 -381 405 -666 399 -49 -1 -90 -3 -91 -5z"/>
<path d="M5528 2324 c-2 -1 -15 -5 -28 -7 -168 -32 -354 -158 -451 -307 -43
-66 -82 -140 -73 -140 4 0 2 -6 -4 -12 -5 -7 -13 -29 -18 -48 -4 -19 -9 -39
-10 -45 -12 -45 -20 -121 -18 -179 3 -82 9 -117 34 -195 16 -51 33 -87 88
-188 20 -36 140 -155 192 -190 154 -104 359 -148 535 -114 27 5 53 7 57 5 5
-3 8 0 8 5 0 6 8 11 18 11 43 0 207 93 278 157 85 78 187 244 208 338 4 17 10
44 13 60 16 69 5 297 -15 330 -4 6 -8 19 -9 29 -6 37 -71 161 -114 216 -23 30
-64 73 -91 95 -27 22 -56 46 -63 52 -44 41 -172 97 -270 118 -51 11 -258 18
-267 9z"/>
<path d="M4118 1444 c-2 -1 -27 -5 -57 -9 -29 -4 -71 -13 -92 -20 -22 -8 -43
-15 -47 -15 -19 -3 -95 -41 -147 -74 -108 -69 -209 -188 -264 -309 -58 -128
-78 -310 -48 -442 4 -16 9 -41 12 -54 2 -13 24 -65 49 -115 57 -116 110 -179
236 -279 35 -28 140 -77 210 -98 136 -41 337 -32 465 22 17 7 32 13 35 13 13
2 109 62 145 90 106 83 194 206 236 331 16 46 21 66 34 135 7 36 7 147 0 205
-11 91 -85 273 -129 322 -6 6 -28 32 -49 56 -92 111 -273 212 -418 232 -49 7
-167 13 -171 9z"/>
</g>
</svg>
