<?xml version="1.0" standalone="no"?>
<!DOCTYPE svg PUBLIC "-//W3C//DTD SVG 20010904//EN"
 "http://www.w3.org/TR/2001/REC-SVG-20010904/DTD/svg10.dtd">
<svg version="1.0" xmlns="http://www.w3.org/2000/svg"
 width="2048.000000pt" height="2048.000000pt" viewBox="0 0 2048.000000 2048.000000"
 preserveAspectRatio="xMidYMid meet">
<metadata>
Created by potrace 1.14, written by Peter Selinger 2001-2017
</metadata>
<g transform="translate(0.000000,2048.000000) scale(0.100000,-0.100000)"
fill="#000000" stroke="none">
<path d="M10679 18076 c-2 -2 -67 -6 -145 -10 -77 -4 -149 -8 -160 -10 -10 -2
-59 -7 -108 -11 -50 -4 -97 -8 -105 -10 -9 -1 -50 -6 -91 -11 -41 -4 -77 -8
-80 -9 -4 -1 -72 -11 -140 -20 -41 -6 -114 -17 -135 -21 -11 -3 -36 -7 -55
-10 -176 -28 -617 -131 -810 -189 -30 -9 -59 -17 -65 -19 -283 -79 -714 -241
-1040 -391 -236 -108 -492 -244 -735 -388 -200 -119 -641 -413 -670 -446 -3
-4 -32 -26 -65 -50 -62 -46 -301 -237 -321 -256 -6 -6 -35 -31 -64 -56 -181
-153 -470 -433 -642 -622 -46 -49 -88 -95 -93 -101 -98 -106 -302 -355 -396
-481 -24 -33 -46 -62 -49 -65 -10 -9 -174 -241 -237 -335 -55 -82 -201 -317
-243 -390 -193 -335 -363 -680 -477 -965 -18 -47 -38 -94 -43 -105 -42 -91
-231 -647 -255 -753 -2 -9 -11 -44 -20 -77 -13 -50 -56 -223 -71 -287 -2 -10
-6 -26 -8 -35 -4 -15 -49 -234 -61 -293 -3 -14 -12 -72 -21 -135 -3 -16 -9
-55 -14 -85 -23 -137 -41 -286 -65 -537 -4 -51 -15 -212 -20 -329 -13 -252 -2
-753 21 -999 3 -27 7 -72 9 -100 11 -121 34 -302 56 -445 6 -36 12 -74 14 -85
4 -34 25 -147 41 -225 9 -41 17 -84 20 -95 2 -11 6 -33 10 -50 20 -100 90
-378 129 -512 284 -981 758 -1897 1399 -2703 55 -69 102 -127 106 -130 3 -3
16 -18 28 -34 22 -28 89 -106 187 -215 137 -152 439 -454 578 -576 195 -172
245 -214 347 -295 36 -28 72 -56 80 -63 38 -31 254 -190 330 -243 364 -256
844 -531 1220 -698 58 -26 112 -51 121 -56 9 -4 67 -29 130 -55 63 -25 128
-52 146 -60 17 -8 35 -15 41 -15 5 0 34 -11 63 -24 46 -20 375 -134 404 -141
6 -1 37 -10 70 -20 33 -10 65 -20 70 -21 6 -2 73 -20 150 -42 130 -36 219 -59
255 -67 8 -2 45 -10 83 -19 37 -9 82 -18 100 -21 17 -3 48 -10 67 -15 19 -5
58 -12 85 -16 28 -3 52 -8 55 -9 6 -4 145 -28 225 -40 22 -3 51 -7 65 -10 29
-4 159 -21 240 -30 30 -4 69 -8 85 -10 17 -2 68 -7 115 -10 47 -4 99 -8 117
-10 198 -23 883 -23 1163 0 19 1 76 6 125 10 50 4 97 9 105 10 8 2 49 6 90 10
41 4 82 8 90 10 9 2 43 6 75 10 33 4 67 9 77 11 9 1 38 6 65 10 26 3 57 8 68
10 10 2 35 6 55 9 38 6 55 9 135 25 28 5 61 12 75 14 501 92 1120 292 1690
547 294 131 932 477 1016 551 11 10 23 18 27 18 7 0 299 195 347 232 14 11 79
60 145 110 161 122 278 218 420 342 211 187 335 322 423 461 33 53 110 213
117 243 2 9 11 37 20 61 15 42 35 128 51 221 11 60 11 329 1 405 -40 297 -200
631 -397 825 -98 97 -264 213 -390 272 -62 28 -202 78 -240 85 -14 2 -41 8
-60 13 -19 5 -60 12 -90 15 -30 3 -71 8 -90 11 -87 12 -318 1 -430 -21 -51
-10 -185 -50 -245 -74 -137 -53 -331 -172 -425 -262 -86 -81 -224 -200 -332
-286 -128 -102 -353 -263 -367 -263 -5 0 -14 -6 -20 -14 -11 -12 -115 -79
-176 -112 -11 -6 -54 -30 -95 -54 -100 -59 -339 -177 -475 -235 -299 -128
-616 -228 -930 -294 -156 -33 -350 -64 -470 -76 -33 -3 -74 -8 -91 -10 -87
-12 -275 -19 -499 -19 -219 1 -450 10 -465 19 -3 2 -43 6 -90 10 -47 4 -87 8
-90 10 -3 2 -29 6 -59 10 -30 4 -63 9 -75 11 -12 2 -37 7 -56 10 -19 3 -66 12
-105 19 -38 8 -81 16 -95 19 -26 4 -168 39 -230 56 -120 33 -361 108 -413 130
-12 5 -74 29 -137 54 -228 89 -439 192 -700 344 -82 48 -374 240 -412 271 -7
6 -70 56 -139 110 -218 172 -438 378 -614 576 -38 43 -75 83 -80 89 -26 28
-147 179 -201 251 -325 429 -600 961 -768 1484 -41 128 -80 260 -92 316 -2 11
-6 29 -9 40 -16 66 -47 213 -60 290 -9 50 -18 101 -20 115 -3 14 -7 50 -10 80
-3 30 -8 62 -10 70 -2 8 -7 47 -10 85 -3 39 -8 86 -11 105 -15 125 -21 571
-10 717 3 40 8 106 11 145 3 40 7 84 10 98 2 14 7 54 11 90 3 36 8 74 10 85 2
11 6 36 9 55 4 32 26 158 40 235 6 27 19 89 31 138 2 9 6 25 8 35 2 9 9 37 16
62 7 25 14 53 16 63 6 33 55 191 96 312 190 561 477 1082 848 1541 231 285
557 603 850 830 293 225 646 437 1001 598 284 129 715 267 1029 330 72 14 90
18 170 31 19 3 42 8 50 10 8 2 47 7 85 11 39 3 72 8 75 9 3 2 41 6 85 10 44 4
91 8 104 10 130 21 721 21 851 1 14 -3 54 -7 90 -11 36 -4 81 -8 100 -11 19
-2 53 -6 75 -9 23 -2 54 -6 70 -9 17 -3 59 -11 95 -17 52 -8 215 -42 311 -64
190 -43 523 -150 704 -226 17 -7 32 -13 35 -14 17 -6 76 -32 183 -81 495 -228
940 -530 1347 -915 131 -124 191 -171 306 -239 141 -83 351 -156 519 -179 122
-16 376 -7 489 19 291 65 510 184 716 390 226 225 354 481 405 805 17 103 12
321 -9 448 -38 225 -149 468 -297 648 -156 191 -673 635 -1009 868 -185 129
-457 306 -555 361 -16 9 -75 43 -130 75 -257 150 -731 374 -1055 498 -165 64
-498 175 -650 217 -19 5 -66 18 -105 29 -145 41 -464 113 -600 137 -16 2 -66
11 -110 19 -104 19 -130 23 -185 30 -25 3 -52 7 -60 9 -8 3 -42 7 -75 11 -33
3 -73 8 -90 10 -104 14 -170 20 -295 30 -47 3 -110 9 -140 11 -64 6 -835 15
-841 10z"/>
</g>
</svg>
