<?xml version="1.0" standalone="no"?>
<!DOCTYPE svg PUBLIC "-//W3C//DTD SVG 20010904//EN"
 "http://www.w3.org/TR/2001/REC-SVG-20010904/DTD/svg10.dtd">
<svg version="1.0" xmlns="http://www.w3.org/2000/svg"
 width="1536.000000pt" height="1536.000000pt" viewBox="0 0 1536.000000 1536.000000"
 preserveAspectRatio="xMidYMid meet">
<metadata>
Created by potrace 1.14, written by Peter Selinger 2001-2017
</metadata>
<g transform="translate(0.000000,1536.000000) scale(0.100000,-0.100000)"
fill="#000000" stroke="none">
<path d="M7500 13792 c-56 -8 -195 -43 -229 -58 -218 -96 -357 -201 -472 -356
-358 -483 -254 -1151 236 -1503 103 -74 274 -150 384 -170 14 -3 37 -8 51 -11
54 -13 281 -11 357 3 338 62 622 275 770 578 130 268 144 582 36 854 -15 36
-35 81 -45 99 -51 91 -63 110 -104 163 -107 139 -288 275 -454 338 -81 31 -92
34 -205 56 -63 12 -261 16 -325 7z"/>
<path d="M5298 12565 c-1 -1 -25 -5 -53 -8 -73 -9 -102 -15 -185 -43 -268 -90
-497 -289 -626 -546 -36 -72 -81 -201 -90 -258 -3 -19 -10 -55 -14 -80 -13
-70 -5 -286 14 -375 20 -89 79 -251 101 -276 8 -8 15 -19 15 -23 0 -22 103
-159 170 -227 127 -130 271 -220 437 -274 76 -25 92 -29 188 -45 77 -13 301
-5 376 13 416 100 717 390 825 792 36 135 42 345 13 480 -55 260 -196 491
-388 637 -31 24 -58 46 -61 49 -11 14 -179 100 -242 123 -103 39 -249 65 -370
65 -58 0 -108 -2 -110 -4z"/>
<path d="M9730 12560 c-99 -18 -118 -22 -190 -47 -359 -123 -620 -412 -711
-790 -26 -106 -31 -327 -10 -438 65 -337 291 -629 601 -778 148 -71 265 -98
440 -102 122 -3 285 17 350 43 14 6 52 21 85 33 54 21 181 87 209 110 155 123
253 226 308 324 112 200 154 353 156 557 1 199 -28 329 -114 502 -180 363
-552 593 -962 593 -64 0 -137 -3 -162 -7z"/>
<path d="M3001 11224 c-309 -56 -578 -241 -740 -507 -162 -266 -201 -601 -105
-895 110 -336 370 -593 709 -701 116 -37 145 -42 295 -46 139 -4 203 4 332 40
208 59 380 172 539 355 82 95 168 264 203 402 32 121 37 161 36 293 -1 284
-105 540 -306 747 -30 32 -72 70 -92 85 -20 16 -42 33 -49 39 -27 26 -173 105
-238 130 -138 52 -211 66 -365 69 -93 2 -172 -2 -219 -11z"/>
<path d="M7489 11224 c-454 -82 -799 -422 -884 -869 -23 -122 -23 -298 1 -405
3 -14 8 -38 11 -55 7 -43 63 -194 74 -201 5 -3 9 -12 9 -19 0 -16 79 -143 118
-190 144 -174 306 -289 502 -357 62 -21 76 -24 180 -43 74 -14 286 -13 360 0
345 65 643 293 792 608 26 54 56 133 63 167 30 132 37 182 38 275 1 122 -6
190 -29 280 -89 350 -343 635 -674 755 -73 27 -100 35 -195 55 -62 14 -290 13
-366 -1z"/>
<path d="M11995 11229 c-123 -17 -282 -73 -395 -139 -84 -50 -205 -153 -285
-243 -27 -31 -86 -119 -118 -177 -39 -70 -102 -249 -112 -315 -3 -23 -7 -52
-10 -65 -3 -14 -5 -74 -5 -135 -3 -528 384 -983 910 -1070 83 -14 290 -14 355
0 291 61 516 198 686 420 206 269 270 654 163 985 -143 445 -564 751 -1029
748 -55 -1 -127 -5 -160 -9z"/>
<path d="M5265 9953 c-145 -19 -349 -98 -477 -186 -78 -54 -268 -240 -268
-264 0 -2 -10 -19 -23 -36 -33 -45 -81 -140 -110 -217 -73 -194 -83 -406 -32
-653 21 -101 125 -309 196 -392 76 -88 114 -126 179 -177 41 -32 80 -63 87
-68 7 -6 15 -10 18 -10 3 0 22 -10 43 -23 57 -36 181 -85 274 -108 146 -36
341 -34 527 5 145 31 337 138 473 264 136 126 255 329 304 519 33 126 41 325
18 453 -41 227 -140 417 -304 580 -162 163 -319 245 -581 306 -29 7 -282 12
-324 7z"/>
<path d="M9701 9944 c-407 -73 -741 -373 -855 -767 -31 -107 -39 -160 -41
-285 -3 -175 28 -322 100 -477 30 -66 100 -179 129 -211 6 -7 31 -35 56 -64
131 -154 385 -294 610 -335 73 -14 286 -14 365 0 342 58 634 273 788 580 51
101 81 187 97 276 6 32 13 71 15 86 6 30 6 213 1 253 -64 465 -380 819 -830
931 -103 26 -328 32 -435 13z"/>
<path d="M3012 8665 c-426 -75 -768 -387 -872 -797 -28 -107 -35 -174 -33
-305 5 -267 112 -526 300 -719 167 -172 353 -271 594 -318 108 -21 340 -15
441 12 382 102 661 361 778 722 165 510 -67 1064 -546 1303 -88 45 -197 83
-264 93 -19 3 -39 8 -44 11 -18 12 -285 10 -354 -2z"/>
<path d="M12049 8676 c-2 -2 -30 -7 -62 -10 -33 -4 -70 -11 -83 -16 -13 -5
-24 -7 -24 -5 0 8 -143 -47 -211 -81 -202 -101 -380 -276 -482 -474 -53 -104
-100 -257 -112 -366 -6 -57 -7 -247 -1 -264 3 -8 8 -33 11 -55 17 -118 80
-283 150 -390 378 -584 1187 -678 1675 -195 296 293 397 695 276 1104 -58 196
-212 412 -386 540 -127 94 -271 159 -424 192 -62 14 -317 29 -327 20z"/>
<path d="M7485 8614 c-44 -8 -96 -20 -115 -26 -19 -7 -37 -13 -40 -13 -51 -9
-225 -98 -295 -150 -129 -96 -255 -241 -323 -372 -60 -114 -92 -215 -117 -363
-9 -50 -9 -251 -1 -290 3 -13 8 -42 12 -65 9 -66 63 -215 106 -297 159 -298
445 -505 780 -565 69 -12 285 -10 361 3 520 91 897 535 900 1059 1 191 -32
333 -113 495 -153 305 -430 514 -772 583 -89 18 -283 18 -383 1z"/>
<path d="M5225 7334 c-38 -8 -79 -16 -90 -18 -102 -21 -304 -120 -399 -196
-151 -122 -265 -275 -338 -454 -92 -224 -100 -512 -22 -746 99 -294 339 -549
626 -664 38 -15 158 -50 213 -62 60 -12 291 -12 370 1 381 62 701 329 841 702
13 34 26 75 29 90 42 199 44 331 10 496 -59 286 -217 521 -460 684 -126 84
-242 131 -420 168 -65 14 -290 13 -360 -1z"/>
<path d="M9740 7330 c-127 -25 -189 -46 -295 -100 -256 -130 -445 -348 -535
-618 -46 -138 -55 -198 -54 -357 0 -176 29 -301 103 -460 139 -293 399 -503
730 -587 115 -30 379 -32 481 -4 36 10 73 19 82 21 9 2 25 8 35 13 10 6 20 10
23 10 30 2 146 60 229 116 204 135 375 366 438 591 45 162 54 404 19 545 -51
214 -143 379 -295 530 -255 255 -618 368 -961 300z"/>
<path d="M3060 6063 c-262 -39 -482 -150 -648 -325 -105 -110 -131 -148 -202
-288 -31 -61 -66 -161 -75 -211 -3 -18 -8 -35 -10 -39 -17 -27 -25 -254 -13
-350 10 -79 44 -212 65 -260 9 -19 25 -55 36 -80 55 -123 189 -289 307 -380
66 -51 157 -110 170 -110 5 0 24 -9 42 -19 57 -33 199 -77 288 -89 64 -9 285
-8 347 1 271 42 543 212 705 442 86 121 156 281 178 406 6 32 12 71 15 86 3
16 5 80 5 143 1 291 -104 545 -314 756 -105 105 -181 159 -312 221 -140 66
-260 93 -424 97 -74 1 -146 1 -160 -1z"/>
<path d="M7495 6054 c-138 -23 -354 -107 -420 -163 -11 -9 -38 -29 -61 -44
-53 -36 -162 -146 -219 -222 -24 -33 -65 -100 -89 -150 -44 -88 -90 -205 -81
-205 2 0 0 -11 -5 -26 -6 -14 -12 -38 -15 -55 -3 -16 -8 -44 -11 -61 -7 -43
-8 -244 0 -285 3 -18 8 -48 11 -65 11 -66 58 -205 92 -272 183 -367 546 -597
953 -605 230 -4 448 61 633 188 341 236 513 625 462 1044 -39 329 -273 661
-570 810 -115 58 -136 66 -240 93 -121 31 -315 39 -440 18z"/>
<path d="M12049 6066 c-2 -2 -25 -6 -50 -9 -279 -33 -576 -216 -737 -454 -64
-96 -135 -239 -146 -294 -1 -8 -8 -32 -14 -54 -52 -185 -43 -417 23 -620 25
-77 102 -225 150 -289 95 -128 228 -244 365 -319 78 -43 250 -102 340 -116 65
-10 296 -8 358 2 140 25 317 98 436 182 66 47 173 146 227 210 42 51 117 177
148 251 57 135 82 250 86 404 14 526 -351 981 -875 1090 -52 11 -303 24 -311
16z"/>
<path d="M5285 4783 c-16 -2 -52 -8 -80 -14 -27 -6 -61 -13 -75 -15 -36 -7
-156 -53 -215 -82 -148 -74 -318 -223 -409 -360 -74 -111 -142 -272 -162 -379
-4 -21 -9 -47 -11 -58 -13 -52 -10 -276 4 -355 39 -227 138 -416 302 -581 148
-147 322 -247 511 -290 25 -6 54 -13 65 -16 11 -3 81 -7 155 -9 251 -8 443 48
655 189 76 51 218 194 272 273 79 117 148 276 169 389 3 22 9 49 11 60 3 11 7
76 9 145 10 408 -201 775 -560 975 -43 24 -172 81 -186 82 -3 1 -25 6 -50 13
-25 7 -56 14 -70 16 -14 3 -32 7 -40 10 -18 7 -253 12 -295 7z"/>
<path d="M9778 4785 c-1 -1 -23 -6 -48 -9 -127 -17 -214 -46 -345 -113 -303
-156 -519 -456 -569 -792 -52 -347 58 -685 304 -932 95 -96 189 -161 313 -219
86 -40 233 -84 320 -95 62 -7 201 -8 252 0 226 34 369 91 529 209 309 230 470
597 431 986 -13 124 -65 294 -123 400 -104 189 -283 361 -477 457 -56 28 -166
68 -211 77 -10 3 -41 10 -69 16 -44 11 -298 23 -307 15z"/>
<path d="M7545 3453 c-443 -54 -811 -375 -924 -808 -46 -175 -46 -366 0 -542
109 -415 432 -715 859 -797 119 -23 340 -15 462 17 97 26 298 112 298 129 0 4
5 8 10 8 20 0 122 82 195 156 195 198 304 457 309 739 2 90 -10 204 -30 274
-8 31 -16 63 -18 71 -9 38 -63 160 -92 211 -196 336 -533 536 -914 543 -69 1
-138 1 -155 -1z"/>
</g>
</svg>
