<svg xmlns="http://www.w3.org/2000/svg" xmlns:xlink="http://www.w3.org/1999/xlink" viewBox="0 0 512 512"><defs><linearGradient id="a" x1="218.086" y1="85.757" x2="289.479" y2="85.757" gradientUnits="userSpaceOnUse"><stop offset="0" stop-color="#ea1a9f"/><stop offset="1" stop-color="#ec3974"/></linearGradient><linearGradient id="b" x1="141.713" y1="128.095" x2="214.766" y2="128.095" xlink:href="#a"/><linearGradient id="c" x1="67" y1="172.923" x2="140.053" y2="172.923" xlink:href="#a"/><linearGradient id="d" x1="141.713" y1="216.09" x2="214.766" y2="216.09" xlink:href="#a"/><linearGradient id="e" y1="172.923" x2="291.139" y2="172.923" xlink:href="#a"/><linearGradient id="f" x1="292.8" y1="128.095" x2="365.852" y2="128.095" xlink:href="#a"/><linearGradient id="g" x1="67" y1="259.258" x2="140.053" y2="259.258" xlink:href="#a"/><linearGradient id="h" x1="67" y1="347.253" x2="140.053" y2="347.253" xlink:href="#a"/><linearGradient id="i" x1="141.713" y1="304.086" x2="214.766" y2="304.086" xlink:href="#a"/><linearGradient id="j" y1="260.918" x2="291.139" y2="260.918" xlink:href="#a"/><linearGradient id="k" x1="292.8" y1="216.09" x2="365.852" y2="216.09" xlink:href="#a"/><linearGradient id="l" x1="369.173" y1="172.923" x2="442.226" y2="172.923" xlink:href="#a"/><linearGradient id="m" x1="369.173" y1="259.258" x2="442.226" y2="259.258" xlink:href="#a"/><linearGradient id="n" x1="294.46" y1="304.086" x2="367.513" y2="304.086" xlink:href="#a"/><linearGradient id="o" y1="347.253" x2="291.139" y2="347.253" xlink:href="#a"/><linearGradient id="p" x1="141.713" y1="390.421" x2="214.766" y2="390.421" xlink:href="#a"/><linearGradient id="q" y1="435.249" x2="291.139" y2="435.249" xlink:href="#a"/><linearGradient id="r" x1="292.8" y1="390.421" x2="365.852" y2="390.421" xlink:href="#a"/><linearGradient id="s" x1="369.173" y1="347.253" x2="442.226" y2="347.253" xlink:href="#a"/></defs><path d="M289.479 85.757c0 19.714-15.982 35.696-35.696 35.696s-35.696-15.982-35.696-35.696 15.982-35.696 35.696-35.696 35.696 15.982 35.696 35.696z" fill="url(#a)"/><path d="M214.766 128.095c0 20.173-16.353 36.526-36.526 36.526s-36.526-16.353-36.526-36.526 16.353-36.526 36.526-36.526 36.526 16.353 36.526 36.526z" fill="url(#b)"/><path d="M140.053 172.923c0 20.173-16.353 36.526-36.526 36.526s-36.526-16.353-36.526-36.526 16.353-36.526 36.526-36.526 36.526 16.353 36.526 36.526z" fill="url(#c)"/><path d="M214.766 216.09c0 20.173-16.353 36.526-36.526 36.526s-36.526-16.353-36.526-36.526 16.353-36.526 36.526-36.526 36.526 16.353 36.526 36.526z" fill="url(#d)"/><path d="M291.139 172.923c0 20.173-16.353 36.526-36.526 36.526s-36.526-16.353-36.526-36.526 16.353-36.526 36.526-36.526 36.526 16.353 36.526 36.526z" fill="url(#e)"/><path d="M365.852 128.095c0 20.173-16.353 36.526-36.526 36.526S292.8 148.268 292.8 128.095s16.353-36.526 36.526-36.526 36.526 16.353 36.526 36.526z" fill="url(#f)"/><path d="M140.053 259.258c0 20.173-16.353 36.526-36.526 36.526s-36.526-16.353-36.526-36.526 16.353-36.526 36.526-36.526 36.526 16.353 36.526 36.526z" fill="url(#g)"/><path d="M140.053 347.253c0 20.173-16.353 36.526-36.526 36.526s-36.526-16.353-36.526-36.526 16.353-36.526 36.526-36.526 36.526 16.353 36.526 36.526z" fill="url(#h)"/><path d="M214.766 304.086c0 20.173-16.353 36.526-36.526 36.526s-36.526-16.353-36.526-36.526 16.353-36.526 36.526-36.526 36.526 16.353 36.526 36.526z" fill="url(#i)"/><path d="M291.139 260.918c0 20.173-16.353 36.526-36.526 36.526s-36.526-16.353-36.526-36.526 16.353-36.526 36.526-36.526 36.526 16.353 36.526 36.526z" fill="url(#j)"/><path d="M365.852 216.09c0 20.173-16.353 36.526-36.526 36.526S292.8 236.263 292.8 216.09s16.353-36.526 36.526-36.526 36.526 16.353 36.526 36.526z" fill="url(#k)"/><path d="M442.226 172.923c0 20.173-16.353 36.526-36.526 36.526s-36.526-16.353-36.526-36.526 16.353-36.526 36.526-36.526 36.526 16.353 36.526 36.526z" fill="url(#l)"/><path d="M442.226 259.258c0 20.173-16.353 36.526-36.526 36.526s-36.526-16.353-36.526-36.526 16.353-36.526 36.526-36.526 36.526 16.353 36.526 36.526z" fill="url(#m)"/><path d="M367.513 304.086c0 20.173-16.353 36.526-36.526 36.526s-36.526-16.353-36.526-36.526 16.353-36.526 36.526-36.526 36.526 16.353 36.526 36.526z" fill="url(#n)"/><path d="M291.139 347.253c0 20.173-16.353 36.526-36.526 36.526s-36.526-16.353-36.526-36.526 16.353-36.526 36.526-36.526 36.526 16.353 36.526 36.526z" fill="url(#o)"/><path d="M214.766 390.421c0 20.173-16.353 36.526-36.526 36.526s-36.526-16.353-36.526-36.526 16.353-36.526 36.526-36.526 36.526 16.353 36.526 36.526z" fill="url(#p)"/><path d="M291.139 435.249c0 20.173-16.353 36.526-36.526 36.526s-36.526-16.353-36.526-36.526 16.353-36.526 36.526-36.526 36.526 16.353 36.526 36.526z" fill="url(#q)"/><path d="M365.852 390.421c0 20.173-16.353 36.526-36.526 36.526S292.8 410.594 292.8 390.421s16.353-36.526 36.526-36.526 36.526 16.353 36.526 36.526z" fill="url(#r)"/><path d="M442.226 347.253c0 20.173-16.353 36.526-36.526 36.526s-36.526-16.353-36.526-36.526 16.353-36.526 36.526-36.526 36.526 16.353 36.526 36.526z" fill="url(#s)"/></svg>