<?xml version="1.0" encoding="UTF-8"?><svg id="Layer_2" xmlns="http://www.w3.org/2000/svg" xmlns:xlink="http://www.w3.org/1999/xlink" viewBox="0 0 343.169 392.113"><defs><linearGradient id="linear-gradient" x1="204.281" y1="402.706" x2="119.726" y2="54.082" gradientUnits="userSpaceOnUse"><stop offset="0" stop-color="#c32df2"/><stop offset="1" stop-color="#530c8c"/></linearGradient><linearGradient id="linear-gradient-2" x1="309.395" y1="64.849" x2="-4.15" y2="64.849" gradientUnits="userSpaceOnUse"><stop offset="0" stop-color="#c10a76"/><stop offset=".653" stop-color="#e014a7"/><stop offset="1" stop-color="#ee19bc"/></linearGradient></defs><g id="Layer_1-2"><path d="M267.944,378.54c22.622-9.049,44.238-22.119,62.336-39.211,16.087-15.081,13.573-38.709.503-51.779-6.535-6.033-14.579-9.551-24.633-9.551h0c-9.049,0-17.595,3.016-24.633,9.551-23.125,21.617-53.287,33.682-85.461,33.682-68.871,0-124.672-56.303-124.672-125.175s55.801-125.175,124.672-125.175c32.676,0,63.341,12.568,86.969,35.19l1.508,1.508c-32.676-32.173-77.417-52.282-126.683-52.282-60.325,0-113.612,29.157-146.288,74.401C4.022,150.31,0,172.932,0,196.056c0,108.082,87.974,196.056,196.057,196.056,25.135,0,49.266-4.524,71.887-13.573h0Z" style="fill:url(#linear-gradient); fill-rule:evenodd; stroke-width:0px;"/><path d="M284.533,107.58c14.076,12.065,35.692,11.06,48.763-2.514,13.573-14.076,13.07-36.698-1.005-50.271C295.593,19.606,247.333,0,196.057,0,111.601,0,38.709,54.293,11.562,129.699,44.238,84.455,97.526,55.298,157.851,55.298c49.265,0,94.007,20.108,126.683,52.282h0Z" style="fill:url(#linear-gradient-2); fill-rule:evenodd; stroke-width:0px;"/></g></svg>