<svg xmlns="http://www.w3.org/2000/svg" viewBox="0 0 187.224 18.417"><defs><linearGradient id="a" x1="0" y1="9.209" x2="187.224" y2="9.209" gradientUnits="userSpaceOnUse"><stop offset="0" stop-color="#7800bf"/><stop offset=".932" stop-color="#b92667"/></linearGradient></defs><path d="M11.864 8.926c-.434.804-1.115 1.451-2.041 1.943-.927.492-2.095.738-3.504.738H3.442v6.59H0V1.033h6.319c1.328 0 2.459.229 3.394.688s1.635 1.09 2.103 1.894.701 1.713.701 2.729c0 .918-.217 1.779-.652 2.582zm-3.577-.75c.459-.434.688-1.045.688-1.832 0-1.672-.934-2.508-2.803-2.508H3.443v4.992h2.729c.951 0 1.656-.217 2.115-.652zM17.458 17.544a6.29 6.29 0 01-2.472-2.471c-.599-1.065-.897-2.295-.897-3.688s.308-2.623.922-3.688a6.411 6.411 0 012.521-2.471c1.065-.582 2.253-.873 3.565-.873s2.5.292 3.565.873a6.418 6.418 0 012.521 2.471c.615 1.066.922 2.295.922 3.688s-.315 2.623-.946 3.688a6.544 6.544 0 01-2.558 2.471c-1.074.583-2.274.873-3.603.873-1.312 0-2.492-.291-3.541-.873zm5.299-2.581c.549-.303.987-.758 1.315-1.365s.492-1.344.492-2.213c0-1.294-.341-2.291-1.021-2.987-.681-.697-1.513-1.045-2.496-1.045s-1.807.349-2.471 1.045-.996 1.693-.996 2.987.324 2.291.972 2.988c.647.697 1.463 1.045 2.446 1.045.623 0 1.209-.151 1.758-.455zM34.081 0v18.196h-3.442V0h3.442zM45.54 18.196l-4.623-5.803v5.803h-3.442V0h3.442v10.352l4.574-5.778h4.476l-6 6.836 6.049 6.787h-4.475zM51.773 7.672c.549-1.065 1.295-1.885 2.238-2.459.942-.574 1.996-.861 3.16-.861 1.016 0 1.906.206 2.668.615.762.41 1.373.927 1.832 1.549V4.574h3.467v13.623h-3.467v-1.992c-.443.639-1.054 1.168-1.832 1.586-.779.418-1.676.627-2.692.627a5.787 5.787 0 01-3.135-.885c-.943-.59-1.689-1.422-2.238-2.496-.549-1.074-.824-2.307-.824-3.701 0-1.377.274-2.598.824-3.664zm9.406 1.561a3.469 3.469 0 00-1.328-1.377c-.558-.32-1.156-.479-1.795-.479s-1.229.156-1.771.467c-.541.312-.98.767-1.315 1.365-.336.599-.504 1.308-.504 2.127s.168 1.537.504 2.151c.335.615.778 1.086 1.328 1.414a3.37 3.37 0 001.758.492c.639 0 1.237-.16 1.795-.479.557-.32 1-.778 1.328-1.377.328-.598.492-1.315.492-2.152s-.164-1.553-.492-2.151zM68.445 7.672c.549-1.065 1.299-1.885 2.25-2.459.951-.574 2.008-.861 3.172-.861.885 0 1.729.193 2.533.578s1.442.897 1.918 1.537V0h3.492v18.196h-3.492v-2.017c-.426.673-1.024 1.213-1.795 1.623s-1.664.615-2.68.615a5.85 5.85 0 01-3.147-.885c-.951-.59-1.701-1.422-2.25-2.496-.549-1.074-.824-2.307-.824-3.701 0-1.377.274-2.598.824-3.664zm9.406 1.561a3.469 3.469 0 00-1.328-1.377c-.558-.32-1.156-.479-1.795-.479s-1.229.156-1.771.467c-.541.312-.98.767-1.315 1.365-.336.599-.504 1.308-.504 2.127s.168 1.537.504 2.151c.335.615.778 1.086 1.328 1.414a3.37 3.37 0 001.758.492c.639 0 1.237-.16 1.795-.479.557-.32 1-.778 1.328-1.377.328-.598.492-1.315.492-2.152s-.164-1.553-.492-2.151zM87.687 17.544a6.29 6.29 0 01-2.472-2.471c-.599-1.065-.897-2.295-.897-3.688s.308-2.623.922-3.688a6.411 6.411 0 012.521-2.471c1.065-.582 2.253-.873 3.565-.873s2.5.292 3.565.873a6.418 6.418 0 012.521 2.471c.615 1.066.922 2.295.922 3.688s-.315 2.623-.946 3.688a6.544 6.544 0 01-2.558 2.471c-1.074.583-2.274.873-3.603.873-1.312 0-2.492-.291-3.541-.873zm5.298-2.581c.549-.303.987-.758 1.315-1.365s.492-1.344.492-2.213c0-1.294-.341-2.291-1.021-2.987-.681-.697-1.513-1.045-2.496-1.045s-1.807.349-2.471 1.045-.996 1.693-.996 2.987.324 2.291.972 2.988c.647.697 1.463 1.045 2.446 1.045.623 0 1.209-.151 1.758-.455zM104.874 7.401v6.59c0 .459.111.792.332.996.222.205.594.308 1.119.308h1.598v2.901h-2.164c-2.901 0-4.352-1.41-4.352-4.229V7.402h-1.623V4.574h1.623V1.205h3.467v3.369h3.049v2.828h-3.049zM116.566 5.053a8.162 8.162 0 013.123-3.123c1.319-.746 2.799-1.119 4.438-1.119 1.918 0 3.598.492 5.041 1.475 1.442.984 2.45 2.345 3.024 4.082h-3.959c-.394-.82-.947-1.435-1.66-1.844-.713-.41-1.537-.615-2.471-.615-1 0-1.89.233-2.668.701-.779.467-1.386 1.127-1.82 1.979-.435.853-.652 1.853-.652 3 0 1.131.217 2.127.652 2.988.434.86 1.041 1.524 1.82 1.992.778.467 1.667.701 2.668.701.934 0 1.758-.209 2.471-.627.713-.418 1.266-1.037 1.66-1.856h3.959c-.574 1.754-1.578 3.119-3.012 4.094-1.435.976-3.119 1.463-5.053 1.463-1.64 0-3.119-.373-4.438-1.119a8.186 8.186 0 01-3.123-3.111c-.762-1.328-1.143-2.836-1.143-4.524s.381-3.201 1.143-4.537zM138.585 0v18.196h-3.442V0h3.442zM144.487 17.544a6.29 6.29 0 01-2.472-2.471c-.599-1.065-.897-2.295-.897-3.688s.308-2.623.922-3.688a6.411 6.411 0 012.521-2.471c1.065-.582 2.253-.873 3.565-.873s2.5.292 3.565.873a6.418 6.418 0 012.521 2.471c.615 1.066.922 2.295.922 3.688s-.315 2.623-.946 3.688a6.544 6.544 0 01-2.558 2.471c-1.074.583-2.274.873-3.603.873-1.312 0-2.492-.291-3.541-.873zm5.299-2.581c.549-.303.987-.758 1.315-1.365s.492-1.344.492-2.213c0-1.294-.341-2.291-1.021-2.987-.681-.697-1.513-1.045-2.496-1.045s-1.807.349-2.471 1.045-.996 1.693-.996 2.987.324 2.291.972 2.988c.647.697 1.463 1.045 2.446 1.045.623 0 1.209-.151 1.758-.455zM170.527 4.574v13.623h-3.467v-1.721c-.442.59-1.021 1.053-1.733 1.389s-1.488.504-2.324.504c-1.066 0-2.008-.226-2.828-.676-.82-.451-1.463-1.115-1.931-1.992-.467-.876-.701-1.921-.701-3.135V4.574h3.442v7.5c0 1.082.271 1.915.812 2.496.541.582 1.279.873 2.213.873.95 0 1.697-.291 2.237-.873.541-.582.812-1.414.812-2.496v-7.5h3.467zM173.859 7.672c.549-1.065 1.299-1.885 2.25-2.459.951-.574 2.008-.861 3.172-.861.885 0 1.729.193 2.533.578s1.442.897 1.918 1.537V0h3.492v18.196h-3.492v-2.017c-.426.673-1.024 1.213-1.795 1.623s-1.664.615-2.68.615a5.85 5.85 0 01-3.147-.885c-.951-.59-1.701-1.422-2.25-2.496-.549-1.074-.824-2.307-.824-3.701 0-1.377.274-2.598.824-3.664zm9.406 1.561a3.469 3.469 0 00-1.328-1.377c-.558-.32-1.156-.479-1.795-.479s-1.229.156-1.771.467c-.541.312-.98.767-1.315 1.365-.336.599-.504 1.308-.504 2.127s.168 1.537.504 2.151c.335.615.778 1.086 1.328 1.414a3.37 3.37 0 001.758.492c.639 0 1.237-.16 1.795-.479.557-.32 1-.778 1.328-1.377.328-.598.492-1.315.492-2.152s-.164-1.553-.492-2.151z" fill="#a04381"/><path d="M11.864 8.926c-.434.804-1.115 1.451-2.041 1.943-.927.492-2.095.738-3.504.738H3.442v6.59H0V1.033h6.319c1.328 0 2.459.229 3.394.688s1.635 1.09 2.103 1.894.701 1.713.701 2.729c0 .918-.217 1.779-.652 2.582zm-3.577-.75c.459-.434.688-1.045.688-1.832 0-1.672-.934-2.508-2.803-2.508H3.443v4.992h2.729c.951 0 1.656-.217 2.115-.652zM17.458 17.544a6.29 6.29 0 01-2.472-2.471c-.599-1.065-.897-2.295-.897-3.688s.308-2.623.922-3.688a6.411 6.411 0 012.521-2.471c1.065-.582 2.253-.873 3.565-.873s2.5.292 3.565.873a6.418 6.418 0 012.521 2.471c.615 1.066.922 2.295.922 3.688s-.315 2.623-.946 3.688a6.544 6.544 0 01-2.558 2.471c-1.074.583-2.274.873-3.603.873-1.312 0-2.492-.291-3.541-.873zm5.299-2.581c.549-.303.987-.758 1.315-1.365s.492-1.344.492-2.213c0-1.294-.341-2.291-1.021-2.987-.681-.697-1.513-1.045-2.496-1.045s-1.807.349-2.471 1.045-.996 1.693-.996 2.987.324 2.291.972 2.988c.647.697 1.463 1.045 2.446 1.045.623 0 1.209-.151 1.758-.455zM34.081 0v18.196h-3.442V0h3.442zM45.54 18.196l-4.623-5.803v5.803h-3.442V0h3.442v10.352l4.574-5.778h4.476l-6 6.836 6.049 6.787h-4.475zM51.773 7.672c.549-1.065 1.295-1.885 2.238-2.459.942-.574 1.996-.861 3.16-.861 1.016 0 1.906.206 2.668.615.762.41 1.373.927 1.832 1.549V4.574h3.467v13.623h-3.467v-1.992c-.443.639-1.054 1.168-1.832 1.586-.779.418-1.676.627-2.692.627a5.787 5.787 0 01-3.135-.885c-.943-.59-1.689-1.422-2.238-2.496-.549-1.074-.824-2.307-.824-3.701 0-1.377.274-2.598.824-3.664zm9.406 1.561a3.469 3.469 0 00-1.328-1.377c-.558-.32-1.156-.479-1.795-.479s-1.229.156-1.771.467c-.541.312-.98.767-1.315 1.365-.336.599-.504 1.308-.504 2.127s.168 1.537.504 2.151c.335.615.778 1.086 1.328 1.414a3.37 3.37 0 001.758.492c.639 0 1.237-.16 1.795-.479.557-.32 1-.778 1.328-1.377.328-.598.492-1.315.492-2.152s-.164-1.553-.492-2.151zM68.445 7.672c.549-1.065 1.299-1.885 2.25-2.459.951-.574 2.008-.861 3.172-.861.885 0 1.729.193 2.533.578s1.442.897 1.918 1.537V0h3.492v18.196h-3.492v-2.017c-.426.673-1.024 1.213-1.795 1.623s-1.664.615-2.68.615a5.85 5.85 0 01-3.147-.885c-.951-.59-1.701-1.422-2.25-2.496-.549-1.074-.824-2.307-.824-3.701 0-1.377.274-2.598.824-3.664zm9.406 1.561a3.469 3.469 0 00-1.328-1.377c-.558-.32-1.156-.479-1.795-.479s-1.229.156-1.771.467c-.541.312-.98.767-1.315 1.365-.336.599-.504 1.308-.504 2.127s.168 1.537.504 2.151c.335.615.778 1.086 1.328 1.414a3.37 3.37 0 001.758.492c.639 0 1.237-.16 1.795-.479.557-.32 1-.778 1.328-1.377.328-.598.492-1.315.492-2.152s-.164-1.553-.492-2.151zM87.687 17.544a6.29 6.29 0 01-2.472-2.471c-.599-1.065-.897-2.295-.897-3.688s.308-2.623.922-3.688a6.411 6.411 0 012.521-2.471c1.065-.582 2.253-.873 3.565-.873s2.5.292 3.565.873a6.418 6.418 0 012.521 2.471c.615 1.066.922 2.295.922 3.688s-.315 2.623-.946 3.688a6.544 6.544 0 01-2.558 2.471c-1.074.583-2.274.873-3.603.873-1.312 0-2.492-.291-3.541-.873zm5.298-2.581c.549-.303.987-.758 1.315-1.365s.492-1.344.492-2.213c0-1.294-.341-2.291-1.021-2.987-.681-.697-1.513-1.045-2.496-1.045s-1.807.349-2.471 1.045-.996 1.693-.996 2.987.324 2.291.972 2.988c.647.697 1.463 1.045 2.446 1.045.623 0 1.209-.151 1.758-.455zM104.874 7.401v6.59c0 .459.111.792.332.996.222.205.594.308 1.119.308h1.598v2.901h-2.164c-2.901 0-4.352-1.41-4.352-4.229V7.402h-1.623V4.574h1.623V1.205h3.467v3.369h3.049v2.828h-3.049zM116.566 5.053a8.162 8.162 0 013.123-3.123c1.319-.746 2.799-1.119 4.438-1.119 1.918 0 3.598.492 5.041 1.475 1.442.984 2.45 2.345 3.024 4.082h-3.959c-.394-.82-.947-1.435-1.66-1.844-.713-.41-1.537-.615-2.471-.615-1 0-1.89.233-2.668.701-.779.467-1.386 1.127-1.82 1.979-.435.853-.652 1.853-.652 3 0 1.131.217 2.127.652 2.988.434.86 1.041 1.524 1.82 1.992.778.467 1.667.701 2.668.701.934 0 1.758-.209 2.471-.627.713-.418 1.266-1.037 1.66-1.856h3.959c-.574 1.754-1.578 3.119-3.012 4.094-1.435.976-3.119 1.463-5.053 1.463-1.64 0-3.119-.373-4.438-1.119a8.186 8.186 0 01-3.123-3.111c-.762-1.328-1.143-2.836-1.143-4.524s.381-3.201 1.143-4.537zM138.585 0v18.196h-3.442V0h3.442zM144.487 17.544a6.29 6.29 0 01-2.472-2.471c-.599-1.065-.897-2.295-.897-3.688s.308-2.623.922-3.688a6.411 6.411 0 012.521-2.471c1.065-.582 2.253-.873 3.565-.873s2.5.292 3.565.873a6.418 6.418 0 012.521 2.471c.615 1.066.922 2.295.922 3.688s-.315 2.623-.946 3.688a6.544 6.544 0 01-2.558 2.471c-1.074.583-2.274.873-3.603.873-1.312 0-2.492-.291-3.541-.873zm5.299-2.581c.549-.303.987-.758 1.315-1.365s.492-1.344.492-2.213c0-1.294-.341-2.291-1.021-2.987-.681-.697-1.513-1.045-2.496-1.045s-1.807.349-2.471 1.045-.996 1.693-.996 2.987.324 2.291.972 2.988c.647.697 1.463 1.045 2.446 1.045.623 0 1.209-.151 1.758-.455zM170.527 4.574v13.623h-3.467v-1.721c-.442.59-1.021 1.053-1.733 1.389s-1.488.504-2.324.504c-1.066 0-2.008-.226-2.828-.676-.82-.451-1.463-1.115-1.931-1.992-.467-.876-.701-1.921-.701-3.135V4.574h3.442v7.5c0 1.082.271 1.915.812 2.496.541.582 1.279.873 2.213.873.95 0 1.697-.291 2.237-.873.541-.582.812-1.414.812-2.496v-7.5h3.467zM173.859 7.672c.549-1.065 1.299-1.885 2.25-2.459.951-.574 2.008-.861 3.172-.861.885 0 1.729.193 2.533.578s1.442.897 1.918 1.537V0h3.492v18.196h-3.492v-2.017c-.426.673-1.024 1.213-1.795 1.623s-1.664.615-2.68.615a5.85 5.85 0 01-3.147-.885c-.951-.59-1.701-1.422-2.25-2.496-.549-1.074-.824-2.307-.824-3.701 0-1.377.274-2.598.824-3.664zm9.406 1.561a3.469 3.469 0 00-1.328-1.377c-.558-.32-1.156-.479-1.795-.479s-1.229.156-1.771.467c-.541.312-.98.767-1.315 1.365-.336.599-.504 1.308-.504 2.127s.168 1.537.504 2.151c.335.615.778 1.086 1.328 1.414a3.37 3.37 0 001.758.492c.639 0 1.237-.16 1.795-.479.557-.32 1-.778 1.328-1.377.328-.598.492-1.315.492-2.152s-.164-1.553-.492-2.151z" fill="url(#a)"/></svg>